<svg width="24" height="24" viewBox="0 0 24 24" fill="none" xmlns="http://www.w3.org/2000/svg">
<path d="M17.6842 8.72727H20.2105V5.45455H24V3.27273H20.2105V0H17.6842V3.27273H13.8947V5.45455H17.6842V8.72727ZM10.1053 13.0909C10.8 13.0909 11.3949 12.8771 11.8901 12.4495C12.3844 12.0225 12.6316 11.5091 12.6316 10.9091C12.6316 10.3091 12.3844 9.79527 11.8901 9.36764C11.3949 8.94073 10.8 8.72727 10.1053 8.72727C9.41053 8.72727 8.816 8.94073 8.32168 9.36764C7.82653 9.79527 7.57895 10.3091 7.57895 10.9091C7.57895 11.5091 7.82653 12.0225 8.32168 12.4495C8.816 12.8771 9.41053 13.0909 10.1053 13.0909ZM10.1053 24C6.71579 21.5091 4.18442 19.1953 2.51116 17.0585C0.837052 14.9225 0 12.9455 0 11.1273C0 8.4 1.016 6.22727 3.048 4.60909C5.07916 2.99091 7.43158 2.18182 10.1053 2.18182C10.3158 2.18182 10.5263 2.18618 10.7368 2.19491C10.9474 2.20436 11.1579 2.21818 11.3684 2.23636V4.44545C11.1579 4.40909 10.9524 4.38618 10.752 4.37673C10.5524 4.368 10.3368 4.36364 10.1053 4.36364C7.97895 4.36364 6.184 4.99527 4.72042 6.25855C3.25768 7.52255 2.52632 9.14545 2.52632 11.1273C2.52632 12.4182 3.14737 13.8953 4.38947 15.5585C5.63158 17.2225 7.53684 19.0727 10.1053 21.1091C12.6737 19.0727 14.5789 17.2225 15.8211 15.5585C17.0632 13.8953 17.6842 12.4182 17.6842 11.1273V10.9091H20.2105V11.1273C20.2105 12.9455 19.3739 14.9225 17.7006 17.0585C16.0265 19.1953 13.4947 21.5091 10.1053 24Z" fill="black"/>
</svg>
