<svg width="24" height="24" viewBox="0 0 24 24" fill="none" xmlns="http://www.w3.org/2000/svg">
<path d="M17.3333 10.6371V6.6482H13.3333V3.98892H17.3333V0H20V3.98892H24V6.6482H20V10.6371H17.3333ZM22.6 24C19.7333 24 16.9391 23.3684 14.2173 22.1053C11.4947 20.8421 9.08356 19.1579 6.984 17.0526C4.88356 14.9474 3.19467 12.5372 1.91733 9.82205C0.639111 7.10781 0 4.32133 0 1.4626V0.764543C0 0.520776 0.0222222 0.288089 0.0666666 0.0664819H7.86667L9.1 6.74792L5.3 10.5706C6.23333 12.1662 7.40578 13.6621 8.81733 15.0582C10.228 16.4543 11.7778 17.6621 13.4667 18.6814L17.3333 14.8255L24 16.1551V23.9335C23.7778 23.9557 23.5444 23.9725 23.3 23.984C23.0556 23.9947 22.8222 24 22.6 24Z" fill="black"/>
</svg>
